<?xml version="1.0" encoding="UTF-8" standalone="no"?>
<svg
   xmlns:dc="http://purl.org/dc/elements/1.1/"
   xmlns:cc="http://creativecommons.org/ns#"
   xmlns:rdf="http://www.w3.org/1999/02/22-rdf-syntax-ns#"
   xmlns:svg="http://www.w3.org/2000/svg"
   xmlns="http://www.w3.org/2000/svg"
   xmlns:sodipodi="http://sodipodi.sourceforge.net/DTD/sodipodi-0.dtd"
   xmlns:inkscape="http://www.inkscape.org/namespaces/inkscape"
   version="1.1"
   id="svg2"
   xml:space="preserve"
   width="127.41333"
   height="60.253334"
   viewBox="0 0 127.41333 60.253334"
   sodipodi:docname="CC_South_Korea_Lockup_Vertical.eps"><metadata
     id="metadata8"><rdf:RDF><cc:Work
         rdf:about=""><dc:format>image/svg+xml</dc:format><dc:type
           rdf:resource="http://purl.org/dc/dcmitype/StillImage" /></cc:Work></rdf:RDF></metadata><defs
     id="defs6" /><sodipodi:namedview
     pagecolor="#ffffff"
     bordercolor="#666666"
     borderopacity="1"
     objecttolerance="10"
     gridtolerance="10"
     guidetolerance="10"
     inkscape:pageopacity="0"
     inkscape:pageshadow="2"
     inkscape:window-width="640"
     inkscape:window-height="480"
     id="namedview4" /><g
     id="g10"
     inkscape:groupmode="layer"
     inkscape:label="ink_ext_XXXXXX"
     transform="matrix(1.3333333,0,0,-1.3333333,0,60.253333)"><g
       id="g12"
       transform="scale(0.1)"><path
         d="m 669.445,429.086 c 0,0 -17.859,-7.16 -38.715,-30.133 -20.933,-23.039 -32.929,-48.808 -23.992,-55.617 3.457,-2.652 11.387,-3.07 25.836,9.937 11.301,10.118 22.778,23.368 30.524,42.352 9.332,22.754 6.347,33.199 6.347,33.461 m 114.09,-41.254 c -23.164,11.824 -40.117,26.32 -57.719,35.387 -16.816,8.605 -27.632,12.199 -41.214,10.379 -2.282,-0.305 -5.606,-1.426 -5.606,-1.426 0,0 7.055,-23.844 -20.844,-64.004 -28.164,-40.664 -53.695,-40.473 -60.968,-29.215 -7.621,11.781 2.195,35.848 18.574,57.266 17.207,22.359 47.383,40.949 47.383,40.949 0,0 -9.586,5.867 -33.239,-7.535 -23.039,-13.07 -62.847,-44.145 -99.636,-96.59 -36.746,-52.379 -44.106,-81.242 -49.364,-103.973 -5.293,-22.664 -0.433,-47.039 24.707,-47.039 25.184,0 54.442,38.453 62.715,51.813 15.371,24.875 25.364,63.043 4.508,57.789 -10.336,-2.606 -18.699,-14.063 -23.906,-24.985 -5.434,-11.3 -7.574,-22.097 -7.574,-22.097 0,0 -8.723,-3.11 -20.418,-11.848 -11.692,-8.762 -19.36,-17.125 -19.36,-17.125 0,0 0.094,18.156 14.586,47.52 14.41,29.39 40.957,42.808 56.016,44.062 13.578,1.137 31.187,-10.383 16.293,-52.887 -14.891,-42.48 -58.989,-93.964 -105.285,-94.71 -42.789,-0.567 -70.778,54.003 -11.301,149.171 65.742,105.309 142.996,137.61 168.094,141.243 25.05,3.613 33.238,-7.446 33.238,-7.446 0,0 20.98,9.723 47.609,7.907 30.699,-2.106 54.395,-23.762 85.621,-38.958 -8.191,-7.906 -15.945,-16.05 -22.91,-23.648 m 137.524,35.473 c -21.2,-13.621 -50.539,-25.969 -78.793,-23.297 -7.133,-7.383 -14.758,-15.875 -22.469,-25.25 49.012,-9.637 91.801,20.672 114.617,46.508 14.191,16.121 21.195,30.531 21.195,30.531 0,0 -13.574,-15.004 -34.55,-28.492 M 855.98,285.391 c 0.657,1.074 0.872,2.058 0.872,2.058 0,0 -0.485,4.121 -4.465,4.293 -4.645,0.172 -10.992,-0.699 -27.637,-19.164 -16.602,-18.371 -26.672,-34.332 -35.43,-50.32 -9.55,-17.406 -13.398,-30.395 -7.882,-33.766 1.535,-0.965 3.894,-1.027 5.777,-0.59 3.68,0.942 7.89,4.403 14.324,11.801 3.024,3.461 6.309,8.391 10.297,13.863 10.992,15 38.668,62.297 44.144,71.825 M 682.805,265.246 c 2.8,7.27 6.308,21.547 -1.094,27.109 -7.879,6 -28.078,-7.992 -28.156,-22.335 -0.094,-14.629 14.23,-21.286 17.687,-22.184 1.973,-0.57 2.629,-0.484 3.594,1.094 0.57,1.031 5.207,9.023 7.969,16.316 m -15.196,-26.691 c -0.57,0.172 -7.097,3.152 -13.882,8.797 -6.789,5.652 -10.207,12.132 -10.465,12.66 -0.262,0.484 -0.574,0.109 -0.879,-0.309 -0.262,-0.39 -1.531,-1.488 -12.262,-17.301 -10.777,-15.804 -27.285,-48.48 -12.305,-53.996 9.59,-3.527 25.528,13.203 34.204,24.352 8.054,10.336 15.636,23.472 16.074,24.437 0.433,0.918 0.039,1.16 -0.485,1.36 m 169.536,-37.668 c -4.028,-6.461 -8.625,-18.946 4.769,-11.149 16.25,9.461 39.547,44.739 39.547,44.739 h 10.519 c 0,0 -13.839,-21.942 -31.886,-41.954 -16.594,-18.351 -36.793,-34.996 -50.981,-33.39 -16.636,1.984 -11.429,23.773 -11.429,23.773 0,0 -23.829,-25.316 -40.25,-23.562 -22.157,2.496 -15.414,29.961 -15.414,29.961 0,0 -25.098,-30.899 -42.176,-29.961 -26.801,1.625 -20.102,34.359 -12.656,57.222 3.984,12.266 7.75,21.942 7.75,21.942 0,0 -2.715,-0.723 -8.454,-1.535 -2.937,-0.438 -8.41,-0.743 -8.41,-0.743 0,0 -11.121,-19.73 -20.054,-31.597 -8.938,-11.891 -46.868,-52.688 -69.243,-44.477 -20.672,7.489 -13.839,39.199 -1.839,64.293 17.566,36.66 66.917,89.348 95.382,82.446 29.481,-7.161 0.66,-61.051 0.66,-61.051 0,0 0.047,-0.176 0.309,-0.281 0.617,-0.266 2.145,-0.422 5.695,0.281 5.645,1.074 10.821,3.242 10.821,3.242 0,0 29.644,62.144 62.402,102.812 32.762,40.661 98.148,110.735 123.813,93.79 6.308,-4.141 3.46,-18.508 -4.993,-35.915 -3.765,-1.183 -7.621,-2.234 -11.601,-3.043 5.691,10.247 9.41,18.899 10.512,24.961 3.851,20.981 -45.2,-23.277 -80.235,-70.968 -34.996,-47.696 -56.023,-90.86 -56.023,-90.86 0,0 7.097,4.012 18.09,12.903 11.523,9.261 27.289,23.8 44.457,41.558 11.597,11.957 25.179,26.981 37.929,43.754 3.766,0.199 7.485,0.57 11.117,1.141 -14.187,-19.094 -29.082,-36.574 -41.777,-49.406 -13.926,-14.122 -29.035,-29.364 -42.269,-40.446 -20.883,-17.601 -37.043,-27.566 -37.043,-27.566 0,0 -30.661,-61.774 -14.016,-65.742 9.805,-2.34 29.172,27.507 29.172,27.507 0,0 25.223,38.52 40.461,55.864 20.719,23.625 38.629,37.289 56.5,37.531 10.422,0.219 16.554,-10.883 16.554,-10.883 l 4.86,7.574 h 30.215 c 0,0 -56.227,-95.558 -60.785,-102.765 m 83.914,222.418 c -21.2,-13.621 -50.539,-25.969 -78.793,-23.297 -7.133,-7.383 -14.758,-15.875 -22.469,-25.25 49.012,-9.637 91.801,20.672 114.617,46.508 14.191,16.121 21.195,30.531 21.195,30.531 0,0 -13.574,-15.004 -34.55,-28.492 M 497.77,376.227 h -28.692 l -16.195,-26.239 h 28.68 z M 362.043,285.48 c 12.18,16.708 45.855,75.309 45.855,75.309 0,0 -0.613,4.113 -4.55,4.289 -4.649,0.195 -12.356,-1.355 -27.813,-20.672 -15.461,-19.312 -27.375,-34.73 -36.086,-50.691 -9.554,-17.453 -13.754,-29.781 -8.238,-33.09 1.488,-0.941 3.902,-1.055 5.738,-0.613 3.594,0.875 8.278,4.468 14.672,11.89 2.977,3.481 6.434,8.106 10.422,13.578 m -153.895,79.141 c -7.929,5.996 -28.078,-8.039 -28.164,-22.34 -0.129,-14.691 18.223,-18.875 20.543,-18.961 0,0 2.059,-0.57 2.887,1.184 0.524,1.07 2.977,5.691 5.785,12.961 2.754,7.289 6.301,21.57 -1.051,27.156 m -11.957,-50.496 c -0.484,0.148 -8.144,2.34 -15.55,7.07 -7.403,4.774 -10.813,11.825 -11.082,12.305 -0.309,0.461 -0.571,0.109 -0.871,-0.305 -0.309,-0.394 -1.93,-2.453 -12.661,-18.261 -10.773,-15.813 -26.711,-48.223 -11.777,-53.762 9.586,-3.547 25.656,13.293 34.332,24.418 8.055,10.336 17.695,26.211 18.09,27.129 0.394,0.965 0.039,1.183 -0.481,1.406 m 234.309,-9.66 h 10.508 c 0,0 -52.602,-76.074 -82.336,-72.637 -16.692,1.906 -11.781,22.426 -11.781,22.426 0,0 -23.301,-27.328 -44.668,-21.899 -19.407,4.969 -6.879,37.29 -6.879,37.29 -2.239,-0.872 -44.278,-48.305 -73.758,-36.942 -30.871,11.934 -14.887,51.594 -9.02,63.508 5,10.051 10.469,19.883 10.469,19.883 0,0 -4.734,-1.36 -7.664,-2.039 -2.933,-0.68 -7.445,-1.551 -7.445,-1.551 0,0 -14.586,-23.766 -23.52,-35.633 -8.886,-11.848 -46.859,-52.637 -69.238,-44.516 -22.3828,8.145 -16.8672,39.438 -4.297,64.29 20.367,40.363 68.719,89.894 97.801,82.515 29.43,-7.512 5.125,-55.273 5.125,-55.273 0,0 5.867,-0.742 19.883,8.828 20.187,13.773 46.816,50.871 75.679,46.531 13.575,-2.016 26.188,-15.941 8.934,-42.371 -5.52,-8.453 -14.805,-16.074 -21.945,-8.582 -4.375,4.637 -0.524,13.137 4.117,18.984 6.527,8.254 15.551,7.118 15.551,7.118 0,0 4.773,10.945 -7.313,10.75 -9.859,-0.219 -34.648,-23.106 -48.703,-46.25 -12.875,-21.219 -32.32,-57.415 -12.742,-65.278 17.91,-7.25 52.066,33.332 67.879,54.528 15.773,21.285 51.812,69.46 82.035,71.476 10.336,0.656 16.598,-8.848 16.598,-8.848 l 3.5,5.54 h 30.171 c 0,0 -56.882,-95.059 -61.355,-102.266 -3.496,-5.649 -8.145,-18.305 4.734,-11.188 12.875,7.137 39.68,41.606 39.68,41.606 M 414.117,152.16 c -22.902,16.074 -50.711,23.125 -76.027,22.16 -25.578,-1.086 -37.055,-20.164 -37.055,-20.164 -11.562,20.164 -34.379,32.496 -69.637,32.211 -56.933,-0.676 -113.382,-27.023 -158.1441,-27.023 -42.9258,0 -74.28124,27.023 -73.2265562,74.918 C 1.82422,318.195 72.8125,393.941 125.809,427.992 c 30.527,19.641 56.058,25.422 72.746,23.563 12.172,-1.36 26.843,-15.418 17.601,-36.157 -13.57,-30.371 -32.32,-27.871 -31.617,-13.316 0.348,9.398 6.656,15.356 11.391,18.594 2.972,2.082 8.269,2.672 11.078,2.738 2.629,2.277 4.687,18.852 -17.164,13.379 -21.86,-5.473 -48.18,-26.891 -73.239,-54.59 -25.0464,-27.66 -64.023,-80.082 -73.6597,-135.109 -4.5117,-25.492 -1.4883,-71.957 58.9027,-71.461 51.25,0.441 126.836,34.23 196.297,33.597 26.98,-0.218 50.453,-7.464 68.718,-18.835 18.043,-11.079 39.594,-27.215 47.254,-38.235"
         style="fill:#040606;fill-opacity:1;fill-rule:nonzero;stroke:none"
         id="path14" /><path
         d="M 253.691,62.8672 224.219,34.8711 V 2.12891 H 207.852 V 120.004 h 16.367 V 54.8438 l 68.929,65.1602 h 20.625 L 265.313,74 316.887,2.12891 H 296.914 L 253.691,62.8672"
         style="fill:#040606;fill-opacity:1;fill-rule:nonzero;stroke:none"
         id="path16" /><path
         d="m 385.973,18.582 c 4.91,2.7852 8.757,6.6563 11.539,11.6289 2.785,4.961 4.176,10.4961 4.176,16.6094 0,6.1172 -1.391,11.6289 -4.176,16.5391 -2.782,4.914 -6.629,8.7578 -11.539,11.5429 -4.914,2.7813 -10.317,4.1719 -16.211,4.1719 -5.895,0 -11.293,-1.3906 -16.207,-4.1719 -4.914,-2.7851 -8.758,-6.6289 -11.543,-11.5429 -2.782,-4.9102 -4.176,-10.4219 -4.176,-16.5391 0,-6.1133 1.394,-11.6484 4.176,-16.6094 2.785,-4.9726 6.629,-8.8437 11.543,-11.6289 4.914,-2.7812 10.312,-4.1718 16.207,-4.1718 5.894,0 11.297,1.3906 16.211,4.1718 z M 344.961,6.22266 c -7.262,4.14454 -12.938,9.76564 -17.031,16.85934 -4.086,7.0938 -6.137,15.0118 -6.137,23.7383 0,8.7344 2.051,16.6485 6.137,23.7422 4.093,7.0938 9.769,12.6914 17.031,16.7813 7.258,4.0937 15.523,6.1406 24.801,6.1406 9.277,0 17.547,-2.0469 24.804,-6.1406 7.258,-4.0899 12.934,-9.6875 17.028,-16.7813 4.094,-7.0937 6.136,-15.0078 6.136,-23.7422 0,-8.7265 -2.042,-16.6445 -6.136,-23.7383 C 407.5,15.9883 401.824,10.3672 394.566,6.22266 387.309,2.07813 379.039,0 369.762,0 360.484,0 352.219,2.07813 344.961,6.22266"
         style="fill:#040606;fill-opacity:1;fill-rule:nonzero;stroke:none"
         id="path18" /><path
         d="M 492.555,91.6836 V 76.9453 c -3.059,0.6563 -6.117,0.9805 -9.168,0.9805 -8.625,0 -15.692,-2.3203 -21.199,-6.9531 -5.516,-4.6407 -8.274,-11.1602 -8.274,-19.5664 V 2.12891 H 438.199 V 91.3555 h 14.899 V 77.4414 c 3.277,5.2383 7.722,9.082 13.343,11.543 5.622,2.4531 11.321,3.6836 17.11,3.6836 3.379,0 6.383,-0.3282 9.004,-0.9844"
         style="fill:#040606;fill-opacity:1;fill-rule:nonzero;stroke:none"
         id="path20" /><path
         d="m 523.004,72.5273 c -5.457,-4.5859 -8.899,-10.8632 -10.313,-18.8281 h 60.575 c -1.09,7.5313 -4.34,13.6992 -9.743,18.5 -5.402,4.8047 -12.253,7.2031 -20.546,7.2031 -7.86,0 -14.52,-2.289 -19.973,-6.875 z m 65.488,-31.7656 h -75.801 c 1.2,-8.1797 4.797,-14.6719 10.805,-19.4765 5.996,-4.8047 13.586,-7.2032 22.754,-7.2032 11.461,0 20.738,3.543 27.836,10.6407 l 9.328,-10.8086 C 579.703,9.76953 574.656,6.41406 568.273,3.84766 561.887,1.28516 554.488,0 546.086,0 c -9.93,0 -18.66,2.01953 -26.195,6.05859 -7.528,4.03911 -13.317,9.60161 -17.352,16.69531 -4.039,7.0977 -6.059,15.1211 -6.059,24.0664 0,8.625 1.965,16.5117 5.895,23.6602 3.93,7.1484 9.414,12.7734 16.453,16.8633 7.039,4.0937 15.086,6.1406 24.149,6.1406 9.277,0 17.406,-2.1016 24.394,-6.3008 6.984,-4.207 12.359,-9.8828 16.125,-17.0273 3.766,-7.1524 5.649,-15.0391 5.649,-23.6602 0,-1.7461 -0.219,-3.6602 -0.653,-5.7344"
         style="fill:#040606;fill-opacity:1;fill-rule:nonzero;stroke:none"
         id="path22" /><path
         d="m 658.316,20.793 c 6.493,4.6875 10.067,12.2226 10.723,22.5937 h -23.246 c -20.305,0 -30.453,-5.0781 -30.453,-15.2265 0,-4.4766 1.883,-7.9961 5.648,-10.5625 3.766,-2.5625 8.758,-3.8438 14.981,-3.8438 8.406,0 15.851,2.3438 22.347,7.0391 z m 38.067,-4.9102 V 2.78516 c -1.969,-0.875 -4.535,-1.3125 -7.699,-1.3125 -4.911,0 -9.168,1.2539 -12.766,3.76953 C 672.313,7.75 670.188,11.4023 669.531,16.2109 665.93,10.9688 661.043,6.98438 654.875,4.25781 648.711,1.53125 641.969,0.164063 634.66,0.164063 c -9.933,0 -18.254,2.398437 -24.969,7.207027 -6.711,4.79691 -10.066,11.56641 -10.066,20.29691 0,8.9492 3.848,15.9648 11.539,21.039 7.695,5.0743 19.129,7.6133 34.301,7.6133 h 23.574 v 1.1445 c 0,6.879 -2.32,12.2227 -6.957,16.0469 -4.641,3.8164 -10.891,5.7305 -18.746,5.7305 -5.02,0 -10.043,-0.8203 -15.063,-2.4609 -5.019,-1.6368 -9.39,-3.9805 -13.097,-7.0391 L 606.5,81.2031 c 4.691,4.0391 10.367,7.0664 17.027,9.0899 6.657,2.0156 13.477,3.0273 20.465,3.0273 12.442,0 22.293,-3.1094 29.551,-9.3359 7.258,-6.2149 10.883,-14.7852 10.883,-25.6992 V 22.2656 c 0,-4.8047 2.461,-7.2031 7.371,-7.2031 1.746,0 3.273,0.2734 4.586,0.8203"
         style="fill:#040606;fill-opacity:1;fill-rule:nonzero;stroke:none"
         id="path24" /></g></g></svg>
