<?xml version="1.0" encoding="UTF-8" standalone="no"?>
<svg
   xmlns:dc="http://purl.org/dc/elements/1.1/"
   xmlns:cc="http://creativecommons.org/ns#"
   xmlns:rdf="http://www.w3.org/1999/02/22-rdf-syntax-ns#"
   xmlns:svg="http://www.w3.org/2000/svg"
   xmlns="http://www.w3.org/2000/svg"
   xmlns:sodipodi="http://sodipodi.sourceforge.net/DTD/sodipodi-0.dtd"
   xmlns:inkscape="http://www.inkscape.org/namespaces/inkscape"
   version="1.1"
   id="svg2"
   xml:space="preserve"
   width="262"
   height="53.32"
   viewBox="0 0 262 53.32"
   sodipodi:docname="CC_South_Korea_Lockup_Horizontal.eps"><metadata
     id="metadata8"><rdf:RDF><cc:Work
         rdf:about=""><dc:format>image/svg+xml</dc:format><dc:type
           rdf:resource="http://purl.org/dc/dcmitype/StillImage" /></cc:Work></rdf:RDF></metadata><defs
     id="defs6" /><sodipodi:namedview
     pagecolor="#ffffff"
     bordercolor="#666666"
     borderopacity="1"
     objecttolerance="10"
     gridtolerance="10"
     guidetolerance="10"
     inkscape:pageopacity="0"
     inkscape:pageshadow="2"
     inkscape:window-width="640"
     inkscape:window-height="480"
     id="namedview4" /><g
     id="g10"
     inkscape:groupmode="layer"
     inkscape:label="ink_ext_XXXXXX"
     transform="matrix(1.3333333,0,0,-1.3333333,0,53.32)"><g
       id="g12"
       transform="scale(0.1)"><path
         d="m 893.133,369.457 c 0,0 -23.832,-9.555 -51.653,-40.199 -27.925,-30.738 -43.933,-65.121 -32.011,-74.207 4.613,-3.535 15.191,-4.09 34.469,13.262 15.078,13.5 30.386,31.171 40.726,56.503 12.449,30.356 8.469,44.293 8.469,44.641 m 152.207,-55.039 c -30.9,15.773 -53.52,35.117 -77.004,47.211 -22.434,11.48 -36.867,16.273 -54.984,13.848 -3.043,-0.407 -7.477,-1.903 -7.477,-1.903 0,0 9.406,-31.812 -27.809,-85.39 -37.578,-54.254 -71.64,-53.996 -81.343,-38.973 -10.168,15.715 2.925,47.82 24.781,76.398 22.953,29.829 63.215,54.629 63.215,54.629 0,0 -12.789,7.828 -44.348,-10.05 C 809.637,352.75 756.527,311.289 707.441,241.32 658.422,171.441 648.602,132.934 641.59,102.609 c -7.063,-30.2379 -0.578,-62.7574 32.961,-62.7574 33.597,0 72.633,51.3047 83.668,69.1254 20.511,33.187 33.84,84.109 6.015,77.097 -13.789,-3.472 -24.949,-18.758 -31.894,-33.332 -7.246,-15.078 -10.106,-29.48 -10.106,-29.48 0,0 -11.636,-4.149 -27.242,-15.805 -15.594,-11.6875 -25.824,-22.8476 -25.824,-22.8476 0,0 0.125,24.2186 19.457,63.3986 19.23,39.207 54.645,57.113 74.734,58.785 18.118,1.516 41.61,-13.852 21.739,-70.559 C 765.23,79.5586 706.395,10.8711 644.633,9.875 c -57.09,-0.75391 -94.426,72.0508 -15.078,199.016 87.707,140.496 190.777,183.589 224.258,188.433 33.425,4.821 44.343,-9.929 44.343,-9.929 0,0 27.992,12.972 63.52,10.546 40.954,-2.804 72.574,-31.699 114.234,-51.972 -10.93,-10.547 -21.28,-21.418 -30.57,-31.551 m 183.47,47.328 c -28.27,-18.172 -67.42,-34.648 -105.11,-31.086 -9.52,-9.844 -19.69,-21.18 -29.98,-33.687 65.39,-12.856 122.47,27.578 152.92,62.05 18.93,21.508 28.27,40.731 28.27,40.731 0,0 -18.11,-20.016 -46.1,-38.008 m -86.82,-184 c 0.88,1.434 1.16,2.746 1.16,2.746 0,0 -0.64,5.5 -5.95,5.731 -6.2,0.23 -14.67,-0.934 -36.87,-25.567 -22.15,-24.511 -35.58,-45.804 -47.27,-67.1365 -12.74,-23.2226 -17.88,-40.5468 -10.52,-45.0468 2.05,-1.2891 5.2,-1.3711 7.71,-0.7852 4.91,1.25 10.53,5.8672 19.11,15.7422 4.03,4.6172 8.42,11.1914 13.74,18.4961 14.66,20.0082 51.58,83.1132 58.89,95.8202 M 910.953,150.871 c 3.738,9.699 8.418,28.746 -1.457,36.172 -10.516,8.004 -37.461,-10.664 -37.566,-29.805 -0.125,-19.515 18.988,-28.394 23.597,-29.593 2.629,-0.758 3.504,-0.645 4.793,1.46 0.762,1.375 6.95,12.04 10.633,21.766 m -20.269,-35.609 c -0.762,0.23 -9.473,4.207 -18.524,11.738 -9.055,7.539 -13.617,16.188 -13.965,16.891 -0.347,0.64 -0.761,0.144 -1.172,-0.411 -0.347,-0.527 -2.039,-1.988 -16.355,-23.085 -14.379,-21.0864 -36.406,-64.6802 -16.418,-72.0395 12.797,-4.7032 34.059,17.6172 45.633,32.4883 10.746,13.789 20.863,31.3162 21.441,32.6052 0.582,1.223 0.055,1.547 -0.64,1.813 M 1116.86,65.0078 c -5.37,-8.6211 -11.5,-25.2734 6.37,-14.8711 21.68,12.6211 52.76,59.6833 52.76,59.6833 h 14.03 c 0,0 -18.46,-29.2692 -42.54,-55.9723 -22.14,-24.4805 -49.08,-46.68364 -68.02,-44.54692 -22.19,2.64842 -15.24,31.72262 -15.24,31.72262 0,0 -31.79,-33.78121 -53.7,-31.43746 -29.563,3.32426 -20.567,39.96876 -20.567,39.96876 0,0 -33.48,-41.21876 -56.269,-39.96876 -35.758,2.16406 -26.817,45.83986 -16.879,76.33986 5.312,16.3632 10.336,29.2732 10.336,29.2732 0,0 -3.621,-0.965 -11.278,-2.047 -3.918,-0.582 -11.222,-0.992 -11.222,-0.992 0,0 -14.836,-26.3202 -26.754,-42.1522 -11.922,-15.8633 -62.528,-70.292956 -92.379,-59.3398 -27.578,9.9883 -18.465,52.2968 -2.457,85.7773 23.437,48.9067 89.281,119.1997 127.258,109.9927 39.332,-9.551 0.879,-81.454 0.879,-81.454 0,0 0.062,-0.23 0.41,-0.375 0.824,-0.355 2.863,-0.558 7.601,0.375 7.531,1.434 14.434,4.329 14.434,4.329 0,0 39.551,82.91 83.257,137.164 43.71,54.25 130.94,147.738 165.18,125.125 8.42,-5.52 4.61,-24.688 -6.66,-47.914 -5.03,-1.575 -10.17,-2.977 -15.48,-4.059 7.59,13.676 12.55,25.215 14.02,33.301 5.14,27.992 -60.3,-31.051 -107.04,-94.68 -46.69,-63.629 -74.742,-121.215 -74.742,-121.215 0,0 9.472,5.348 24.142,17.211 15.37,12.356 36.4,31.75 59.3,55.445 15.48,15.954 33.6,35.993 50.61,58.372 5.02,0.265 9.98,0.761 14.83,1.523 -18.93,-25.477 -38.8,-48.793 -55.74,-65.91 -18.58,-18.844 -38.73,-39.18 -56.39,-53.961 -27.86,-23.488 -49.42,-36.781 -49.42,-36.781 0,0 -40.906,-82.4145 -18.699,-87.7074 13.082,-3.1211 38.918,36.6992 38.918,36.6992 0,0 33.651,51.3902 53.981,74.5272 27.64,31.52 51.54,49.75 75.38,50.074 13.9,0.289 22.09,-14.519 22.09,-14.519 l 6.48,10.105 h 40.31 c 0,0 -75.02,-127.4919 -81.1,-137.1052 m 111.95,296.7382 c -28.27,-18.172 -67.42,-34.648 -105.11,-31.086 -9.52,-9.844 -19.69,-21.18 -29.98,-33.687 65.39,-12.856 122.47,27.578 152.92,62.05 18.93,21.508 28.27,40.731 28.27,40.731 0,0 -18.11,-20.016 -46.1,-38.008 M 664.09,298.934 H 625.816 L 604.203,263.93 h 38.266 z M 483.016,177.867 c 16.246,22.289 61.175,100.473 61.175,100.473 0,0 -0.816,5.488 -6.074,5.723 -6.195,0.261 -16.48,-1.813 -37.101,-27.583 -20.629,-25.765 -36.52,-46.332 -48.145,-67.628 -12.746,-23.286 -18.351,-39.735 -10.992,-44.145 1.984,-1.258 5.207,-1.406 7.656,-0.816 4.793,1.164 11.043,5.961 19.574,15.863 3.969,4.644 8.586,10.809 13.907,18.113 M 277.699,283.449 c -10.582,8.004 -37.461,-10.722 -37.578,-29.801 -0.172,-19.601 24.317,-25.183 27.406,-25.296 0,0 2.746,-0.762 3.856,1.578 0.699,1.429 3.972,7.593 7.719,17.293 3.675,9.726 8.406,28.777 -1.403,36.226 m -15.957,-67.367 c -0.64,0.199 -10.863,3.125 -20.746,9.434 -9.871,6.367 -14.422,15.773 -14.781,16.418 -0.41,0.613 -0.762,0.144 -1.16,-0.407 -0.414,-0.531 -2.578,-3.273 -16.895,-24.367 -14.371,-21.094 -35.637,-64.332 -15.711,-71.726 12.785,-4.727 34.231,17.734 45.801,32.578 10.75,13.789 23.609,34.968 24.137,36.195 0.527,1.285 0.054,1.578 -0.645,1.875 m 312.602,-12.887 h 14.019 c 0,0 -70.179,-101.492 -109.847,-96.906 -22.266,2.539 -15.719,29.918 -15.719,29.918 0,0 -31.082,-36.4609 -59.594,-29.215 -25.887,6.629 -9.176,49.75 -9.176,49.75 -2.988,-1.164 -59.07,-64.4451 -98.402,-49.285 -41.187,15.922 -19.859,68.828 -12.035,84.723 6.672,13.41 13.969,26.531 13.969,26.531 0,0 -6.313,-1.816 -10.223,-2.719 -3.914,-0.91 -9.934,-2.074 -9.934,-2.074 0,0 -19.461,-31.703 -31.379,-47.535 -11.859,-15.805 -62.515,-70.2267 -92.375,-59.391 -29.859,10.863 -22.5,52.613 -5.734,85.77 27.176,53.847 91.68,119.933 130.481,110.086 39.265,-10.024 6.839,-73.739 6.839,-73.739 0,0 7.825,-0.992 26.524,11.774 26.933,18.379 62.465,67.871 100.969,62.082 18.109,-2.692 34.941,-21.27 11.921,-56.531 -7.367,-11.278 -19.753,-21.446 -29.277,-11.454 -5.84,6.192 -0.699,17.532 5.488,25.333 8.711,11.011 20.746,9.492 20.746,9.492 0,0 6.368,14.605 -9.753,14.347 -13.157,-0.297 -46.223,-30.828 -64.977,-61.703 -17.18,-28.312 -43.117,-76.601 -17,-87.09 23.895,-9.675 69.465,44.465 90.563,72.743 21.039,28.402 69.125,92.671 109.445,95.359 13.789,0.879 22.14,-11.805 22.14,-11.805 l 4.668,7.395 h 40.258 c 0,0 -75.894,-126.824 -81.859,-136.438 -4.664,-7.539 -10.863,-24.418 6.316,-14.925 17.176,9.523 52.938,55.507 52.938,55.507 M 552.488,0 C 521.934,21.4453 484.832,30.8516 451.055,29.5664 416.93,28.1172 401.621,2.66406 401.621,2.66406 386.195,29.5664 355.758,46.0195 308.719,45.6406 232.762,44.7344 157.445,9.58594 97.7305,9.58594 40.4648,9.58594 -1.37109,45.6406 0.0351563,109.531 2.43359,221.512 97.1406,322.566 167.848,367.996 c 40.722,26.203 74.785,33.918 97.05,31.438 16.243,-1.813 35.817,-20.571 23.485,-48.239 -18.11,-40.515 -43.121,-37.187 -42.184,-17.761 0.465,12.535 8.883,20.48 15.196,24.804 3.968,2.778 11.035,3.563 14.781,3.653 3.508,3.039 6.254,25.152 -22.903,17.847 -29.16,-7.3 -64.277,-35.875 -97.703,-72.828 C 122.152,270.008 70.1523,200.07 57.293,126.652 51.2734,92.6445 55.3086,30.6523 135.879,31.3164 c 68.375,0.5899 169.219,45.668 261.887,44.8242 35.996,-0.2968 67.308,-9.9609 91.679,-25.1289 C 513.516,36.2305 542.27,14.6992 552.488,0"
         style="fill:#ffffff;fill-opacity:1;fill-rule:nonzero;stroke:none"
         id="path14" /><path
         d="m 1374.37,183.395 -39.32,-37.352 v -43.684 h -21.84 v 157.262 h 21.84 v -86.933 l 91.95,86.933 h 27.53 l -64.65,-61.375 68.8,-95.887 h -26.65 l -57.66,81.036"
         style="fill:#ffffff;fill-opacity:1;fill-rule:nonzero;stroke:none"
         id="path16" /><path
         d="m 1550.85,124.309 c 6.55,3.718 11.68,8.882 15.39,15.511 3.72,6.621 5.57,14.012 5.57,22.168 0,8.153 -1.85,15.508 -5.57,22.059 -3.71,6.558 -8.84,11.687 -15.39,15.402 -6.56,3.711 -13.76,5.567 -21.63,5.567 -7.86,0 -15.07,-1.856 -21.62,-5.567 -6.55,-3.715 -11.69,-8.844 -15.4,-15.402 -3.71,-6.551 -5.57,-13.906 -5.57,-22.059 0,-8.156 1.86,-15.547 5.57,-22.168 3.71,-6.629 8.85,-11.793 15.4,-15.511 6.55,-3.711 13.76,-5.567 21.62,-5.567 7.87,0 15.07,1.856 21.63,5.567 z m -54.72,-16.489 c -9.69,5.532 -17.26,13.032 -22.71,22.5 -5.46,9.465 -8.19,20.02 -8.19,31.668 0,11.649 2.73,22.203 8.19,31.672 5.45,9.461 13.02,16.93 22.71,22.391 9.68,5.461 20.71,8.187 33.09,8.187 12.38,0 23.41,-2.726 33.1,-8.187 9.67,-5.461 17.25,-12.93 22.71,-22.391 5.46,-9.469 8.19,-20.023 8.19,-31.672 0,-11.648 -2.73,-22.203 -8.19,-31.668 -5.46,-9.468 -13.04,-16.968 -22.71,-22.5 -9.69,-5.531 -20.72,-8.3005 -33.1,-8.3005 -12.38,0 -23.41,2.7695 -33.09,8.3005"
         style="fill:#ffffff;fill-opacity:1;fill-rule:nonzero;stroke:none"
         id="path18" /><path
         d="M 1693.04,221.836 V 202.18 c -4.08,0.875 -8.15,1.308 -12.23,1.308 -11.5,0 -20.94,-3.093 -28.29,-9.285 -7.34,-6.187 -11.02,-14.887 -11.02,-26.098 v -65.746 h -20.98 v 119.039 h 19.88 v -18.562 c 4.37,6.984 10.31,12.117 17.8,15.398 7.5,3.278 15.11,4.914 22.83,4.914 4.51,0 8.52,-0.437 12.01,-1.312"
         style="fill:#ffffff;fill-opacity:1;fill-rule:nonzero;stroke:none"
         id="path20" /><path
         d="m 1733.67,196.277 c -7.28,-6.113 -11.88,-14.488 -13.76,-25.113 h 80.82 c -1.46,10.043 -5.8,18.27 -13,24.68 -7.21,6.406 -16.36,9.613 -27.42,9.613 -10.48,0 -19.36,-3.059 -26.64,-9.18 z m 87.37,-42.371 h -101.13 c 1.59,-10.922 6.4,-19.582 14.41,-25.992 8.01,-6.406 18.13,-9.609 30.36,-9.609 15.29,0 27.67,4.726 37.13,14.199 l 12.45,-14.414 c -4.95,-5.539 -11.68,-10.016 -20.2,-13.434 -8.52,-3.426 -18.39,-5.1365 -29.6,-5.1365 -13.25,0 -24.9,2.6955 -34.95,8.0825 -10.04,5.386 -17.76,12.808 -23.15,22.281 -5.38,9.461 -8.08,20.164 -8.08,32.105 0,11.504 2.62,22.024 7.87,31.563 5.24,9.535 12.56,17.039 21.95,22.5 9.39,5.461 20.12,8.187 32.21,8.187 12.38,0 23.23,-2.8 32.55,-8.406 9.31,-5.609 16.49,-13.184 21.51,-22.719 5.02,-9.539 7.54,-20.062 7.54,-31.558 0,-2.336 -0.3,-4.883 -0.87,-7.649"
         style="fill:#ffffff;fill-opacity:1;fill-rule:nonzero;stroke:none"
         id="path22" /><path
         d="m 1914.19,127.262 c 8.66,6.258 13.44,16.304 14.31,30.14 h -31.01 c -27.09,0 -40.63,-6.769 -40.63,-20.312 0,-5.973 2.51,-10.668 7.53,-14.086 5.03,-3.426 11.69,-5.133 19.98,-5.133 11.22,0 21.16,3.125 29.82,9.391 z m 50.79,-6.551 v -17.477 c -2.63,-1.164 -6.05,-1.75 -10.28,-1.75 -6.55,0 -12.23,1.672 -17.02,5.028 -4.81,3.343 -7.65,8.222 -8.52,14.633 -4.81,-6.993 -11.33,-12.309 -19.56,-15.946 -8.22,-3.636 -17.22,-5.4607 -26.97,-5.4607 -13.25,0 -24.36,3.1997 -33.31,9.6137 -8.96,6.402 -13.43,15.429 -13.43,27.082 0,11.937 5.13,21.296 15.4,28.066 10.26,6.77 25.51,10.156 45.76,10.156 h 31.45 v 1.532 c 0,9.171 -3.1,16.304 -9.29,21.406 -6.19,5.094 -14.52,7.644 -25,7.644 -6.7,0 -13.4,-1.093 -20.1,-3.281 -6.7,-2.18 -12.53,-5.312 -17.47,-9.391 l -11.58,15.289 c 6.26,5.387 13.83,9.426 22.72,12.125 8.88,2.696 17.98,4.04 27.3,4.04 16.6,0 29.74,-4.149 39.43,-12.45 9.68,-8.3 14.51,-19.73 14.51,-34.293 v -48.054 c 0,-6.407 3.29,-9.61 9.84,-9.61 2.33,0 4.36,0.364 6.12,1.098"
         style="fill:#ffffff;fill-opacity:1;fill-rule:nonzero;stroke:none"
         id="path24" /></g></g></svg>
